<?xml version="1.0"?>
<svg width="429" height="425" xmlns="http://www.w3.org/2000/svg" xmlns:svg="http://www.w3.org/2000/svg" version="1.1">

 <g class="layer" display="inline">
  <title>Layer 1</title>
  <g id="svg_1" transform="translate(-41.75 -299.52) translate(0 299.52) translate(41.75 0) translate(-5 0) translate(0 -297.3) matrix(1 0 0 1 -65.75 0)">
   <path d="m222.51,297.73c5.51,0.01 11.03,0 16.54,0c9.26,-0.01 18.52,0 27.78,0.01c10.6,0.01 21.21,0.01 31.82,-0.01c9.2,0 18.4,-0.01 27.6,0c5.45,0 10.9,0 16.36,0c19.91,-0.03 39.8,0 59.68,1.18c0.7,0.04 1.39,0.08 2.1,0.12c28.37,1.7 52.14,10.97 71.73,32.27c20.17,23.96 23.04,51.81 23.03,81.95c0,2.14 0,4.28 0.01,6.42c0.01,5.78 0.01,11.56 0.01,17.35c0,3.62 0,7.25 0,10.88c0.01,12.68 0.02,25.37 0.02,38.05c0,11.77 0.01,23.53 0.02,35.29c0.02,10.15 0.02,20.29 0.02,30.44c0,6.04 0,12.08 0.01,18.11c0.01,5.7 0.01,11.39 0.01,17.09c0,2.06 0,4.13 0,6.2c0.11,37.98 -2.58,73.95 -30.57,102.27c-14.08,13.09 -32.09,21.26 -50.93,24.34c-0.72,0.12 -1.45,0.24 -2.2,0.36c-14.9,2.23 -30.01,2.1 -45.04,2.09c-2.12,0.01 -4.24,0.01 -6.35,0.01c-5.7,0.01 -11.41,0.02 -17.11,0.02c-3.57,0 -7.15,0 -10.72,0c-12.51,0.01 -25.02,0.01 -37.52,0.01c-11.6,0 -23.21,0.01 -34.81,0.03c-10.01,0.01 -20.02,0.02 -30.02,0.02c-5.96,0 -11.92,0 -17.87,0.01c-5.61,0.01 -11.22,0.01 -16.83,0c-2.04,0 -4.08,0 -6.12,0.01c-10.19,0.03 -20.28,-0.19 -30.43,-1.13c-0.83,-0.08 -1.67,-0.16 -2.53,-0.24c-26.12,-2.68 -49.19,-14.75 -66.2,-34.88c-26.1,-33.94 -23.17,-78.14 -23.13,-118.65c0,-3.95 0,-7.91 0,-11.86c-0.01,-6.67 0,-13.34 0,-20.02c0.01,-6.71 0.01,-13.41 0,-20.12c-0.02,-32.4 -0.02,-64.8 0.4,-97.19c0.04,-2.53 0.06,-5.06 0.09,-7.59c0.27,-29.69 3.95,-58.83 25.84,-80.83c0.93,-0.91 1.85,-1.81 2.8,-2.74c1.28,-1.31 1.28,-1.31 2.58,-2.65c10.81,-10.54 24.04,-17.07 38.42,-21.35c0.94,-0.3 1.88,-0.59 2.85,-0.9c24.9,-6.8 53.11,-4.4 78.66,-4.37z" fill="#00416A" id="object-0"/>
   <path d="m380.21,393.46c20.52,18.71 20.52,18.71 24.79,27.54c-0.25,2.88 -0.55,4.5 -2.52,6.66c-0.64,0.49 -1.29,0.97 -1.96,1.47c-0.72,0.55 -1.45,1.11 -2.2,1.68c-1.18,0.87 -1.18,0.87 -2.39,1.75c-0.8,0.61 -1.61,1.22 -2.43,1.84c-1.67,1.26 -3.35,2.51 -5.02,3.75c-2.36,1.75 -4.69,3.52 -7.03,5.29c-7.01,5.31 -7.01,5.31 -9.77,7.33c-1.62,1.18 -3.23,2.41 -4.83,3.63c-2.85,1.6 -2.85,1.6 -5.32,1.79c-3.94,-1.85 -6.29,-4.93 -9.1,-8.19c-14.02,-15.55 -32.04,-26.59 -53.34,-28.22c-24.85,-1.24 -46.12,4.62 -65.09,21.22c-15.67,14.75 -25.33,35.55 -26.29,57.06c-0.65,25.18 6.04,48.06 23.29,66.94c13.11,13.69 32.11,22.96 51,25c5.96,0.07 11.92,-0.19 17.88,-0.52c6,-0.16 10.06,-0.26 14.7,3.83c1.16,1.21 2.3,2.44 3.42,3.69c1.44,1.15 2.89,2.28 4.37,3.37c0.65,0.49 1.29,0.97 1.96,1.47c3.66,2.55 7.32,2.79 11.67,2.16c4.59,-2 7.91,-4.45 11.56,-7.86c0.51,-0.48 1.03,-0.96 1.55,-1.45c3.89,-3.66 7.63,-7.44 11.35,-11.27c0.53,-0.55 1.07,-1.1 1.62,-1.66c2.18,-2.25 4.36,-4.49 6.52,-6.76c1.6,-1.69 3.23,-3.35 4.86,-5.02c0.73,-0.77 0.73,-0.77 1.46,-1.56c1.4,-1.41 1.4,-1.41 4.08,-3.42c3.83,0.15 5.76,1.27 8.5,3.87c2.56,2.38 5.14,4.68 7.87,6.86c0.58,0.48 1.17,0.96 1.78,1.45c1.17,0.95 2.35,1.89 3.54,2.82c2.47,2.02 4.14,3.59 5.33,6.57c-0.09,8.02 -9.87,16 -15.02,21.43c-0.84,0.9 -1.68,1.8 -2.54,2.73c-22.88,23.89 -56.24,37.61 -89.23,38.47c-27.98,0.35 -52.66,-4.4 -77.23,-18.2c-1.12,-0.63 -2.24,-1.25 -3.39,-1.9c-31.82,-18.79 -54.52,-48.51 -63.97,-84.27c-0.57,-2.27 -1.11,-4.55 -1.64,-6.83c-0.17,-0.69 -0.34,-1.37 -0.51,-2.08c-5,-21.61 -3.77,-45.29 0.51,-66.92c0.15,-0.76 0.3,-1.53 0.45,-2.31c4.27,-20.31 14.21,-38.93 27.55,-54.69c1.17,-1.41 1.17,-1.41 2.37,-2.85c22.21,-25.62 55.98,-44.14 90.07,-46.9c38.98,-2.38 76.47,5.34 106.77,31.21z" fill="#FDFCF7" id="object-1"/>
   <path d="m405.36,479.28c4.32,1.18 6.87,4.15 9.96,7.29c0.64,0.6 1.29,1.21 1.95,1.84c3.19,3.19 4.62,4.79 5.29,9.36c-0.71,4.16 -2.65,6.38 -5.56,9.23c-4.14,4.13 -8.25,8.29 -12.35,12.46c-7.35,7.44 -14.71,14.87 -22.08,22.29c-4.46,4.49 -8.91,8.98 -13.34,13.48c-4.3,4.37 -8.61,8.72 -12.94,13.05c-1.64,1.66 -3.28,3.32 -4.91,4.99c-2.29,2.32 -4.58,4.63 -6.89,6.93c-0.67,0.69 -1.34,1.38 -2.03,2.1c-4.61,4.54 -4.61,4.54 -8.69,5.32c-3.08,-0.69 -4.27,-1.38 -6.46,-3.61c-0.65,-0.66 -1.31,-1.31 -1.99,-1.99c-0.69,-0.71 -1.38,-1.43 -2.09,-2.17c-0.73,-0.74 -1.46,-1.47 -2.21,-2.23c-2.33,-2.36 -4.64,-4.74 -6.95,-7.12c-1.55,-1.57 -3.1,-3.14 -4.66,-4.71c-6.14,-6.23 -12.22,-12.47 -17.94,-19.1c-1.19,-1.37 -2.43,-2.71 -3.68,-4.04c-0.85,-0.91 -0.85,-0.91 -1.72,-1.83c-0.59,-0.62 -1.18,-1.23 -1.78,-1.86c-1.29,-1.96 -1.29,-1.96 -1.89,-4.24c0.99,-4.43 4.05,-6.93 7.23,-10.03c0.62,-0.65 1.23,-1.29 1.87,-1.95c2.85,-2.84 4.68,-4.55 8.65,-5.47c3.81,0.98 5.14,2.89 7.85,5.73c0.99,0.99 1.97,1.97 2.96,2.96c7.68,7.68 15.36,15.36 23.04,23.04c5.08,-4.25 9.84,-8.68 14.5,-13.37c0.94,-0.93 0.94,-0.93 1.9,-1.89c0.93,-0.93 0.93,-0.93 1.89,-1.89c0.54,-0.54 1.09,-1.09 1.65,-1.66c1.82,-1.93 3.55,-3.9 5.29,-5.91c3.8,-4.37 7.83,-8.46 11.94,-12.54c0.75,-0.75 1.51,-1.51 2.29,-2.28c2.39,-2.39 4.78,-4.77 7.17,-7.14c1.61,-1.61 3.22,-3.22 4.84,-4.83c7.23,-7.22 7.23,-7.22 10.79,-10.74c1.09,-1.1 2.18,-2.2 3.26,-3.32c3.25,-3.35 3.25,-3.35 5.84,-4.15z" fill="#4DBE66" id="object-2"/>
  </g>
 </g>
</svg>